<?xml version="1.0" encoding="utf-8"?>
<!-- Generator: Adobe Illustrator 21.1.0, SVG Export Plug-In . SVG Version: 6.00 Build 0)  -->
<svg version="1.1" id="Layer_1" xmlns="http://www.w3.org/2000/svg" xmlns:xlink="http://www.w3.org/1999/xlink" x="0px" y="0px"
	 viewBox="0 0 283.5 283.5" enable-background="new 0 0 283.5 283.5" xml:space="preserve">
<g>
	<path fill="#8CC63F" d="M96.2,106.2H69V43h27.2V106.2z"/>
	<path d="M99,42.9h27.4c9.9,0,18,8.1,18,18c0,4-1.3,7.6-3.4,10.6c3.5,3.6,5.7,8.7,5.7,14.2c0,11.2-9.1,20.3-20.3,20.3H99V42.9z
		 M112,65.3h14.4c2.5,0,4.5-1.9,4.5-4.4c0-2.5-2-4.5-4.5-4.5H112V65.3z M112,92.5h14.4c3.8,0,6.8-3.1,6.8-6.8c0-3.8-3-6.8-6.8-6.8
		H112V92.5z"/>
	<g>
		<path d="M184.6,105.8v-16c0-3-0.7-5.1-2.1-6.4c-1.4-1.3-3.9-1.9-7.7-1.9H161v24.4h-12.6V43.6H180c2.9,0,5.5,0.5,7.8,1.4
			c2.3,0.9,4.4,2.2,6,3.7c1.7,1.6,3,3.5,3.9,5.7c0.9,2.2,1.4,4.6,1.4,7.2c0,3.4-0.8,6.4-2.4,8.9c-1.6,2.6-3.9,4.4-6.9,5.5
			c2.7,0.9,4.7,2.2,5.9,4c1.2,1.8,1.7,4.5,1.7,8.1v17.6H184.6z M161,54.4v16.6h16.3c3.5,0,6-0.8,7.4-2.3c1.4-1.6,2.2-3.5,2.2-5.9
			c0-2.4-0.7-4.4-2.1-6c-1.4-1.6-3.7-2.3-7-2.3H161z"/>
		<path fill="#F15A24" d="M200.3,165.4V43h56v21.4h-31.9v26.2h29.4v21.6h-29.4v31.5h33.3v21.8H200.3z"/>
	</g>
	<path fill="#22B573" d="M111.9,240.5l-7.6-24.7H60.2l-8.5,24.7H25.2l42.7-119.6h29l42.1,119.6H111.9z M82.1,147.8H82l-15.3,47.5
		h30.4L82.1,147.8z"/>
	<g>
		<path d="M113.7,165.6v-43.9H99.1v-9.3h40.4v9.3h-14.7v43.9H113.7z"/>
		<path d="M185,165.6v-20.3h-24.1v20.3h-19.2v-53.2h19.2v20H185v-20h12.5v53.2H185z"/>
	</g>
	<g>
		<path d="M183,240.2v-18.3c0-3.4-0.8-5.9-2.4-7.3c-1.6-1.5-4.5-2.2-8.8-2.2h-15.9v27.9h-14.5V169h36.1c3.3,0,6.3,0.5,9,1.6
			c2.7,1,5,2.5,6.9,4.3c1.9,1.8,3.4,4,4.5,6.5c1,2.5,1.6,5.3,1.6,8.2c0,3.9-0.9,7.3-2.7,10.2c-1.8,3-4.5,5.1-7.9,6.3
			c3.1,1,5.4,2.5,6.7,4.6c1.3,2.1,2,5.2,2,9.3v20.2H183z M155.9,181.3v19h18.7c4,0,6.8-0.9,8.5-2.7c1.6-1.8,2.5-4,2.5-6.8
			c0-2.8-0.8-5.1-2.4-6.9c-1.6-1.8-4.3-2.7-8-2.7H155.9z"/>
		<path d="M221.8,240.2v-58.8h-21.5V169h57.9v12.4h-21.6v58.8H221.8z"/>
	</g>
</g>
</svg>
